<svg width="64" height="64" viewBox="0 0 64 64" fill="none" xmlns="http://www.w3.org/2000/svg">
<path d="M13.4501 31.4969C14.386 35.3788 16.4158 38.4888 19.5506 40.8043C22.8659 43.2446 26.9818 44.4705 31.8871 44.4705C35.4505 44.4705 38.732 43.6986 41.7428 42.155C44.7536 40.6113 47.178 38.2958 49.0161 35.2085C49.6927 34.0735 50.2565 32.8363 50.6963 31.5083H54.8799C54.4063 33.0519 53.8086 34.5162 53.0756 35.9009C50.9895 39.8281 48.1027 42.836 44.4153 44.9358C40.7279 47.0356 36.5556 48.0912 31.8984 48.0912C25.6963 48.0912 20.5768 46.5022 16.5173 43.3241C12.6494 40.2822 10.1912 36.3436 9.11988 31.5196H13.4501V31.4969Z" fill="#FE9901"/>
<path d="M18.674 15.9086H13.1426L18.674 20.9371V15.9086Z" fill="#FE9901"/>
</svg>
